<svg width="24" height="23" viewBox="0 0 24 23" fill="none" xmlns="http://www.w3.org/2000/svg">
<path d="M9.29952 16.6543C7.69824 16.6543 6.39551 17.9004 6.39551 19.432C6.39551 20.9637 7.69824 22.2098 9.29952 22.2098C10.9008 22.2098 12.2035 20.9637 12.2035 19.432C12.2035 17.9004 10.9008 16.6543 9.29952 16.6543ZM9.29952 20.5431C8.65889 20.5431 8.13793 20.0448 8.13793 19.432C8.13793 18.8193 8.65889 18.321 9.29952 18.321C9.93983 18.321 10.4611 18.8193 10.4611 19.432C10.4611 20.0448 9.94015 20.5431 9.29952 20.5431Z" fill="black"/>
<path d="M17.8955 16.6543C16.2942 16.6543 14.9915 17.9004 14.9915 19.432C14.9915 20.9637 16.2942 22.2098 17.8955 22.2098C19.4967 22.2098 20.7995 20.9637 20.7995 19.432C20.7995 17.9004 19.4967 16.6543 17.8955 16.6543ZM17.8955 20.5431C17.2548 20.5431 16.7339 20.0448 16.7339 19.432C16.7339 18.8193 17.2548 18.321 17.8955 18.321C18.5361 18.321 19.057 18.8193 19.057 19.432C19.057 20.0448 18.5361 20.5431 17.8955 20.5431Z" fill="black"/>
<path d="M22.9332 5.63554C22.7677 5.43663 22.5168 5.32083 22.2513 5.32083H6.99668L6.20476 1.49255C6.13535 1.15727 5.85891 0.896448 5.50721 0.834789L2.02241 0.22369C1.54822 0.140073 1.09518 0.44038 1.00835 0.89314C0.921517 1.3459 1.23485 1.78005 1.70823 1.86311L4.61049 2.37199L7.16716 14.7326C7.24788 15.1229 7.60596 15.4043 8.0218 15.4043H20.2186C20.6243 15.4043 20.976 15.1368 21.0674 14.7581L23.1002 6.34164C23.16 6.09414 23.0985 5.83414 22.9332 5.63554ZM19.5257 13.7376H8.73731L7.34137 6.98776H21.1556L19.5257 13.7376Z" fill="black"/>
</svg>
