<svg width="24" height="21" viewBox="0 0 24 21" fill="none" xmlns="http://www.w3.org/2000/svg">
<path d="M21.4247 2.52404C20.8802 1.99552 20.2336 1.57626 19.522 1.29021C18.8104 1.00416 18.0477 0.856934 17.2774 0.856934C16.5071 0.856934 15.7444 1.00416 15.0328 1.29021C14.3212 1.57626 13.6746 1.99552 13.1301 2.52404L12 3.6204L10.8699 2.52404C9.76995 1.45696 8.27812 0.857487 6.72259 0.857487C5.16705 0.857487 3.67522 1.45696 2.57529 2.52404C1.47536 3.59112 0.857422 5.03839 0.857422 6.54746C0.857422 8.05654 1.47536 9.5038 2.57529 10.5709L3.7054 11.6672L12 19.7141L20.2946 11.6672L21.4247 10.5709C21.9695 10.0426 22.4017 9.41538 22.6965 8.72503C22.9914 8.03467 23.1431 7.29473 23.1431 6.54746C23.1431 5.80019 22.9914 5.06025 22.6965 4.3699C22.4017 3.67954 21.9695 3.05232 21.4247 2.52404V2.52404Z" stroke="#BA172C" stroke-width="2" stroke-linecap="round" stroke-linejoin="round"/>
</svg>
