<svg width="22" height="22" viewBox="0 0 22 22" fill="none" xmlns="http://www.w3.org/2000/svg">
<path d="M18.359 13.6226C17.2028 12.4751 15.8266 11.6255 14.3251 11.1112C15.9332 10.0119 16.9898 8.17198 16.9898 6.09152C16.9898 2.73273 14.2366 0.00012207 10.8526 0.00012207C7.46863 0.00012207 4.71551 2.73273 4.71551 6.09152C4.71551 8.17198 5.77205 10.0119 7.38027 11.1112C5.87874 11.6255 4.50253 12.4751 3.34631 13.6226C1.34129 15.6127 0.237061 18.2587 0.237061 21.0731H1.89574C1.89574 16.171 5.91378 12.1829 10.8526 12.1829C15.7915 12.1829 19.8095 16.171 19.8095 21.0731H21.4682C21.4682 18.2587 20.364 15.6127 18.359 13.6226ZM10.8526 10.5366C8.38323 10.5366 6.37419 8.54256 6.37419 6.09152C6.37419 3.64047 8.38323 1.64645 10.8526 1.64645C13.322 1.64645 15.3311 3.64047 15.3311 6.09152C15.3311 8.54256 13.322 10.5366 10.8526 10.5366Z" fill="black"/>
</svg>
