<svg width="24" height="24" viewBox="0 0 24 24" fill="none" xmlns="http://www.w3.org/2000/svg">
<mask id="mask0_352_2137" style="mask-type:alpha" maskUnits="userSpaceOnUse" x="0" y="0" width="24" height="24">
<path d="M12 4C7.58065 4 4 7.58065 4 12C4 16.4194 7.58065 20 12 20C16.4194 20 20 16.4194 20 12C20 7.58065 16.4194 4 12 4ZM15.9032 14.129C16.0645 14.2581 16.0645 14.5161 15.9032 14.6774L14.6452 15.9355C14.4839 16.0968 14.2258 16.0968 14.0968 15.9355L12 13.8065L9.87097 15.9355C9.74194 16.0968 9.48387 16.0968 9.32258 15.9355L8.06452 14.6452C7.90323 14.5161 7.90323 14.2581 8.06452 14.0968L10.1935 12L8.06452 9.90323C7.90323 9.77419 7.90323 9.51613 8.06452 9.35484L9.35484 8.09677C9.48387 7.93548 9.74194 7.93548 9.90323 8.09677L12 10.1935L14.0968 8.09677C14.2258 7.93548 14.4839 7.93548 14.6452 8.09677L15.9032 9.35484C16.0645 9.51613 16.0645 9.77419 15.9032 9.90323L13.8065 12L15.9032 14.129Z" fill="#252437"/>
</mask>
<g mask="url(#mask0_352_2137)">
<rect width="24" height="24" fill="#2196F3"/>
</g>
</svg>
