<svg width="15" height="15" viewBox="0 0 15 15" fill="none" xmlns="http://www.w3.org/2000/svg">
<path fill-rule="evenodd" clip-rule="evenodd" d="M9.64591 0.645917C9.69235 0.599354 9.74753 0.562411 9.80827 0.537205C9.86902 0.511998 9.93414 0.499023 9.99991 0.499023C10.0657 0.499023 10.1308 0.511998 10.1915 0.537205C10.2523 0.562411 10.3075 0.599354 10.3539 0.645917L14.3539 4.64592C14.4005 4.69236 14.4374 4.74754 14.4626 4.80828C14.4878 4.86903 14.5008 4.93415 14.5008 4.99992C14.5008 5.06568 14.4878 5.13081 14.4626 5.19155C14.4374 5.2523 14.4005 5.30747 14.3539 5.35392L12.4519 7.25592L11.6229 10.5689C11.5599 10.8212 11.4323 11.0527 11.2528 11.2408C11.0733 11.4289 10.848 11.5672 10.5989 11.6419L0.253906 14.7459L3.35791 4.39992C3.43272 4.15118 3.57085 3.92613 3.75877 3.7468C3.94668 3.56748 4.17794 3.44002 4.42991 3.37692L7.74291 2.54892L9.64591 0.645917ZM7.84591 3.55392L4.67291 4.34692C4.58868 4.36794 4.51138 4.41053 4.4486 4.4705C4.38583 4.53046 4.33975 4.60574 4.31491 4.68892L1.74491 13.2539L10.3119 10.6839C10.3946 10.6589 10.4694 10.6128 10.529 10.5502C10.5886 10.4877 10.6309 10.4107 10.6519 10.3269L11.4459 7.15292L7.84591 3.55292V3.55392Z" fill="black" fill-opacity="0.3"/>
<path fill-rule="evenodd" clip-rule="evenodd" d="M1.83209 13.228L7.00009 9C7.19787 9 7.39121 8.94135 7.55566 8.83147C7.72011 8.72159 7.84829 8.56541 7.92397 8.38268C7.99966 8.19996 8.01946 7.99889 7.98088 7.80491C7.94229 7.61093 7.84705 7.43275 7.7072 7.29289C7.56735 7.15304 7.38916 7.0578 7.19518 7.01922C7.0012 6.98063 6.80014 7.00043 6.61741 7.07612C6.43468 7.15181 6.27851 7.27998 6.16862 7.44443C6.05874 7.60888 6.00009 7.80222 6.00009 8L1.77209 13.168L1.74609 13.254L1.83209 13.228Z" fill="black" fill-opacity="0.3"/>
</svg>
