<svg width="26" height="27" viewBox="0 0 26 27" fill="none" xmlns="http://www.w3.org/2000/svg">
<path d="M5.70425 10.5787C6.21112 9.04519 7.18934 7.71092 8.49936 6.76625C9.80938 5.82157 11.3843 5.31474 12.9994 5.31806C14.8302 5.31806 16.4855 5.96805 17.7855 7.03188L21.5685 3.24998C19.2632 1.24041 16.3089 0 12.9994 0C7.87524 0 3.46393 2.92282 1.34277 7.20413L5.70425 10.5787Z" fill="#EA4335"/>
<path d="M17.3763 19.5156C16.1955 20.2771 14.6962 20.6834 12.9997 20.6834C11.391 20.6867 9.82209 20.1839 8.51498 19.2462C7.20787 18.3085 6.22884 16.9834 5.71649 15.4585L1.33984 18.7811C2.41369 20.9545 4.07554 22.7833 6.13663 24.0596C8.19772 25.336 10.5754 26.0087 12.9997 26.0014C16.1771 26.0014 19.2126 24.8715 21.4865 22.7515L17.3774 19.5156H17.3763Z" fill="#34A853"/>
<path d="M21.4868 22.7523C23.8647 20.5337 25.4084 17.2317 25.4084 13.0024C25.4084 12.2332 25.2904 11.4066 25.1138 10.6385H13V15.6619H19.9723C19.6289 17.3508 18.7048 18.6584 17.3777 19.5164L21.4868 22.7523Z" fill="#4A90E2"/>
<path d="M5.71685 15.4548C5.45182 14.6627 5.31718 13.8329 5.31818 12.9978C5.31818 12.1506 5.4536 11.337 5.70493 10.5765L1.34345 7.20197C0.4512 9.0032 -0.00875323 10.9877 0.000126158 12.9978C0.000126158 15.0778 0.482207 17.0386 1.3402 18.7773L5.71685 15.4548Z" fill="#FBBC05"/>
</svg>
