<svg width="24" height="25" viewBox="0 0 24 25" fill="none" xmlns="http://www.w3.org/2000/svg">
<path fill-rule="evenodd" clip-rule="evenodd" d="M7.08773 0.592984C8.35848 0.534484 8.76365 0.521484 12.0007 0.521484C15.2376 0.521484 15.6428 0.535568 16.9125 0.592984C18.1821 0.650401 19.0488 0.852984 19.8071 1.14657C20.6012 1.44665 21.3216 1.91573 21.9175 2.5224C22.5241 3.11715 22.9922 3.83648 23.2912 4.63165C23.5858 5.38998 23.7873 6.25665 23.8458 7.52415C23.9043 8.79707 23.9173 9.20223 23.9173 12.4382C23.9173 15.6751 23.9032 16.0803 23.8458 17.3511C23.7884 18.6186 23.5858 19.4852 23.2912 20.2436C22.9921 21.0388 22.5234 21.7594 21.9175 22.355C21.3216 22.9616 20.6012 23.4297 19.8071 23.7287C19.0488 24.0233 18.1821 24.2248 16.9146 24.2833C15.6428 24.3418 15.2376 24.3548 12.0007 24.3548C8.76365 24.3548 8.35848 24.3407 7.08773 24.2833C5.82023 24.2259 4.95357 24.0233 4.19523 23.7287C3.39998 23.4296 2.67946 22.9608 2.08382 22.355C1.47756 21.7599 1.00841 21.0397 0.709068 20.2446C0.415484 19.4863 0.213984 18.6196 0.155484 17.3521C0.0969844 16.0792 0.0839844 15.6741 0.0839844 12.4382C0.0839844 9.20115 0.0980677 8.79598 0.155484 7.52632C0.212901 6.25665 0.415484 5.38998 0.709068 4.63165C1.00885 3.83657 1.47836 3.11641 2.0849 2.52132C2.67969 1.91519 3.3995 1.44605 4.19415 1.14657C4.95248 0.852984 5.81915 0.651484 7.08665 0.592984H7.08773ZM16.8161 2.73798C15.5594 2.68057 15.1824 2.66865 12.0007 2.66865C8.8189 2.66865 8.4419 2.68057 7.18523 2.73798C6.02282 2.79107 5.39232 2.98498 4.97198 3.14857C4.41623 3.36523 4.01865 3.62198 3.60157 4.03907C3.2062 4.42371 2.90193 4.89196 2.71107 5.40948C2.54748 5.82982 2.35357 6.46032 2.30048 7.62273C2.24307 8.8794 2.23115 9.2564 2.23115 12.4382C2.23115 15.6199 2.24307 15.9969 2.30048 17.2536C2.35357 18.416 2.54748 19.0465 2.71107 19.4668C2.90173 19.9836 3.20615 20.4527 3.60157 20.8372C3.98615 21.2327 4.45523 21.5371 4.97198 21.7277C5.39232 21.8913 6.02282 22.0852 7.18523 22.1383C8.4419 22.1957 8.81782 22.2076 12.0007 22.2076C15.1835 22.2076 15.5594 22.1957 16.8161 22.1383C17.9785 22.0852 18.609 21.8913 19.0293 21.7277C19.5851 21.5111 19.9827 21.2543 20.3997 20.8372C20.7952 20.4527 21.0996 19.9836 21.2902 19.4668C21.4538 19.0465 21.6477 18.416 21.7008 17.2536C21.7582 15.9969 21.7701 15.6199 21.7701 12.4382C21.7701 9.2564 21.7582 8.8794 21.7008 7.62273C21.6477 6.46032 21.4538 5.82982 21.2902 5.40948C21.0736 4.85373 20.8168 4.45615 20.3997 4.03907C20.0151 3.64373 19.5468 3.33946 19.0293 3.14857C18.609 2.98498 17.9785 2.79107 16.8161 2.73798ZM10.4786 16.1117C11.3286 16.4656 12.2751 16.5133 13.1565 16.2468C14.0378 15.9804 14.7993 15.4161 15.3109 14.6506C15.8225 13.885 16.0524 12.9656 15.9614 12.0493C15.8704 11.1331 15.4641 10.2769 14.8119 9.6269C14.3962 9.21142 13.8935 8.89328 13.34 8.69539C12.7866 8.49751 12.1961 8.42479 11.6112 8.48248C11.0263 8.54018 10.4614 8.72684 9.95727 9.02904C9.45314 9.33124 9.02229 9.74146 8.69573 10.2302C8.36917 10.7189 8.15502 11.2739 8.06871 11.8553C7.9824 12.4367 8.02606 13.03 8.19657 13.5925C8.36707 14.155 8.66017 14.6726 9.05476 15.1083C9.44936 15.5439 9.93563 15.8866 10.4786 16.1117ZM7.66948 8.10698C8.23826 7.53821 8.9135 7.08703 9.65664 6.77921C10.3998 6.47139 11.1963 6.31296 12.0007 6.31296C12.805 6.31296 13.6015 6.47139 14.3447 6.77921C15.0878 7.08703 15.763 7.53821 16.3318 8.10698C16.9006 8.67576 17.3518 9.351 17.6596 10.0941C17.9674 10.8373 18.1258 11.6338 18.1258 12.4382C18.1258 13.2425 17.9674 14.039 17.6596 14.7822C17.3518 15.5253 16.9006 16.2005 16.3318 16.7693C15.1831 17.918 13.6252 18.5633 12.0007 18.5633C10.3761 18.5633 8.81818 17.918 7.66948 16.7693C6.52079 15.6206 5.87546 14.0627 5.87546 12.4382C5.87546 10.8136 6.52079 9.25568 7.66948 8.10698ZM19.4843 7.22515C19.6253 7.09219 19.7381 6.9323 19.8161 6.75496C19.8942 6.57761 19.9359 6.3864 19.9387 6.19266C19.9415 5.99892 19.9054 5.80658 19.8326 5.62703C19.7597 5.44748 19.6516 5.28437 19.5146 5.14736C19.3776 5.01035 19.2145 4.90222 19.0349 4.82938C18.8554 4.75654 18.663 4.72046 18.4693 4.72328C18.2756 4.72611 18.0844 4.76778 17.907 4.84582C17.7297 4.92387 17.5698 5.0367 17.4368 5.17765C17.1782 5.45177 17.0367 5.81587 17.0422 6.19266C17.0477 6.56945 17.1998 6.92927 17.4662 7.19573C17.7327 7.46219 18.0925 7.61431 18.4693 7.61981C18.8461 7.6253 19.2102 7.48373 19.4843 7.22515Z" fill="black"/>
</svg>
