<svg width="31" height="22" viewBox="0 0 31 22" fill="none" xmlns="http://www.w3.org/2000/svg">
<path fill-rule="evenodd" clip-rule="evenodd" d="M1.19231 0C0.876088 0 0.57282 0.12877 0.349219 0.357981C0.125618 0.587192 0 0.898069 0 1.22222C0 1.54638 0.125618 1.85725 0.349219 2.08646C0.57282 2.31567 0.876088 2.44444 1.19231 2.44444H29.8077C30.1239 2.44444 30.4272 2.31567 30.6508 2.08646C30.8744 1.85725 31 1.54638 31 1.22222C31 0.898069 30.8744 0.587192 30.6508 0.357981C30.4272 0.12877 30.1239 0 29.8077 0H1.19231ZM0 11C0 10.6758 0.125618 10.365 0.349219 10.1358C0.57282 9.90655 0.876088 9.77778 1.19231 9.77778H29.8077C30.1239 9.77778 30.4272 9.90655 30.6508 10.1358C30.8744 10.365 31 10.6758 31 11C31 11.3242 30.8744 11.635 30.6508 11.8642C30.4272 12.0935 30.1239 12.2222 29.8077 12.2222H1.19231C0.876088 12.2222 0.57282 12.0935 0.349219 11.8642C0.125618 11.635 0 11.3242 0 11ZM0 20.7778C0 20.4536 0.125618 20.1427 0.349219 19.9135C0.57282 19.6843 0.876088 19.5556 1.19231 19.5556H29.8077C30.1239 19.5556 30.4272 19.6843 30.6508 19.9135C30.8744 20.1427 31 20.4536 31 20.7778C31 21.1019 30.8744 21.4128 30.6508 21.642C30.4272 21.8712 30.1239 22 29.8077 22H1.19231C0.876088 22 0.57282 21.8712 0.349219 21.642C0.125618 21.4128 0 21.1019 0 20.7778Z" fill="black"/>
</svg>
