<svg width="24" height="21" viewBox="0 0 24 21" fill="none" xmlns="http://www.w3.org/2000/svg">
<path d="M21.4247 2.52429C20.8802 1.99576 20.2336 1.5765 19.522 1.29046C18.8104 1.00441 18.0477 0.857178 17.2774 0.857178C16.5071 0.857178 15.7444 1.00441 15.0328 1.29046C14.3212 1.5765 13.6746 1.99576 13.1301 2.52429L12 3.62064L10.8699 2.52429C9.76995 1.45721 8.27812 0.857731 6.72259 0.857731C5.16705 0.857731 3.67522 1.45721 2.57529 2.52429C1.47536 3.59136 0.857422 5.03863 0.857422 6.54771C0.857422 8.05678 1.47536 9.50405 2.57529 10.5711L3.7054 11.6675L12 19.7143L20.2946 11.6675L21.4247 10.5711C21.9695 10.0429 22.4017 9.41562 22.6965 8.72527C22.9914 8.03492 23.1431 7.29497 23.1431 6.54771C23.1431 5.80044 22.9914 5.06049 22.6965 4.37014C22.4017 3.67979 21.9695 3.05256 21.4247 2.52429V2.52429Z" stroke="black" stroke-width="2" stroke-linecap="round" stroke-linejoin="round"/>
</svg>
