<svg width="26" height="27" viewBox="0 0 26 27" fill="none" xmlns="http://www.w3.org/2000/svg">
<g clip-path="url(#clip0_529_3496)">
<path fill-rule="evenodd" clip-rule="evenodd" d="M26 13.4382C26 20.6175 20.1793 26.4382 13 26.4382C5.82075 26.4382 0 20.6175 0 13.4382C0 6.25898 5.82075 0.438232 13 0.438232C20.1793 0.438232 26 6.25898 26 13.4382ZM13.4658 10.0355C12.2016 10.5609 9.67417 11.6496 5.88467 13.3006C5.26933 13.5455 4.9465 13.7849 4.91725 14.0189C4.86742 14.4154 5.36358 14.5714 6.03742 14.7826C6.1295 14.8119 6.22483 14.8411 6.32233 14.8736C6.98642 15.0892 7.87908 15.3416 8.34275 15.3514C8.76417 15.3601 9.23433 15.1867 9.75325 14.8314C13.2936 12.4405 15.1212 11.2326 15.236 11.2066C15.3173 11.1881 15.4299 11.1643 15.5058 11.2326C15.5816 11.2997 15.574 11.4276 15.5664 11.4622C15.5166 11.6713 13.5731 13.4794 12.5656 14.4154C12.2514 14.7068 12.0293 14.9137 11.9838 14.9614C11.882 15.0665 11.778 15.1672 11.6783 15.2636C11.0608 15.8573 10.5993 16.3036 11.7043 17.0317C12.2352 17.3816 12.6598 17.6708 13.0834 17.959C13.546 18.2742 14.0075 18.5884 14.6055 18.9806C14.7572 19.0802 14.9023 19.1831 15.0443 19.2839C15.5827 19.6685 16.0669 20.013 16.6649 19.9588C17.0116 19.9263 17.3713 19.6002 17.5532 18.6263C17.9833 16.3231 18.8305 11.3355 19.0266 9.27932C19.0385 9.1086 19.0312 8.93708 19.0049 8.76798C18.9892 8.63141 18.9226 8.50574 18.8186 8.4159C18.6637 8.28915 18.4232 8.26207 18.3148 8.26423C17.8263 8.2729 17.0766 8.53398 13.4658 10.0355Z" fill="black"/>
</g>
<defs>
<clipPath id="clip0_529_3496">
<rect width="26" height="26" fill="white" transform="translate(0 0.438232)"/>
</clipPath>
</defs>
</svg>
