<svg width="19" height="18" viewBox="0 0 19 18" fill="none" xmlns="http://www.w3.org/2000/svg">
<path d="M9.5 0C4.25331 0 0 4.02945 0 9C0 13.9705 4.25331 18 9.5 18C14.7467 18 19 13.9705 19 9C19 4.02945 14.7467 0 9.5 0ZM9.5 1.95556C13.6067 1.95556 16.9346 5.11044 16.9346 9C16.9346 12.8896 13.6067 16.0433 9.5 16.0433C5.39331 16.0433 2.06536 12.8896 2.06536 9C2.06538 5.11044 5.39331 1.95556 9.5 1.95556ZM13.1402 4.72632L7.63409 9.94372L5.8482 8.25183L4.09594 9.91077L5.88183 11.6027L7.64568 13.2737L9.3968 11.6136L14.904 6.39734L13.1402 4.72632Z" fill="#36873E"/>
</svg>
