<svg width="27" height="27" viewBox="0 0 27 27" fill="none" xmlns="http://www.w3.org/2000/svg">
<path fill-rule="evenodd" clip-rule="evenodd" d="M19.2279 16.0187C18.8988 15.8573 17.2857 15.0795 16.9854 14.9712C16.6851 14.8639 16.4665 14.8108 16.2468 15.1337C16.0282 15.4543 15.4 16.1801 15.2089 16.3946C15.0168 16.6102 14.8258 16.6362 14.4979 16.4759C14.17 16.3134 13.1123 15.9743 11.8591 14.878C10.8842 14.0243 10.225 12.9702 10.034 12.6474C9.84303 12.3257 10.0131 12.1512 10.1776 11.9909C10.3255 11.8468 10.5055 11.615 10.67 11.4276C10.8345 11.2391 10.8886 11.1047 10.9979 10.8892C11.1083 10.6747 11.0531 10.4872 10.9703 10.3258C10.8886 10.1644 10.2328 8.5795 9.95896 7.93492C9.69287 7.30767 9.42237 7.39326 9.22142 7.38242C9.02931 7.37376 8.8107 7.37159 8.59209 7.37159C8.37347 7.37159 8.01795 7.45176 7.71764 7.77459C7.41622 8.09634 6.56938 8.87525 6.56938 10.4602C6.56938 12.044 7.74414 13.5747 7.90865 13.7903C8.07316 14.0048 10.2217 17.257 13.513 18.6512C14.297 18.9827 14.9075 19.181 15.3834 19.3283C16.1695 19.5742 16.885 19.5396 17.4503 19.4561C18.0796 19.3641 19.3913 18.6772 19.6651 17.9254C19.9378 17.1736 19.9378 16.529 19.8561 16.3946C19.7744 16.2603 19.5558 16.1801 19.2268 16.0187H19.2279ZM13.2414 24.0386H13.237C11.2821 24.039 9.36316 23.5234 7.68121 22.5458L7.28373 22.314L3.1522 23.3778L4.25519 19.4258L3.99573 19.0206C2.90282 17.3137 2.32445 15.3382 2.32744 13.3223C2.32965 7.41817 7.22521 2.61469 13.2459 2.61469C16.1607 2.61469 18.901 3.73052 20.9613 5.75418C21.9775 6.74714 22.7829 7.92795 23.331 9.22831C23.8791 10.5287 24.1589 11.9227 24.1543 13.3299C24.1521 19.2341 19.2566 24.0386 13.2414 24.0386ZM22.5291 4.21693C21.3126 3.01544 19.8652 2.06277 18.2707 1.41414C16.6762 0.765512 14.9664 0.433817 13.2403 0.438277C6.00408 0.438277 0.112618 6.21784 0.11041 13.3212C0.109306 15.5919 0.713247 17.8084 1.86261 19.7616L0 26.4382L6.96023 24.6464C8.88564 25.6757 11.0433 26.215 13.2359 26.215H13.2414C20.4777 26.215 26.3692 20.4355 26.3714 13.331C26.3767 11.638 26.0399 9.96086 25.3804 8.39646C24.7208 6.83206 23.7517 5.41149 22.5291 4.21693Z" fill="black"/>
</svg>
