<svg width="26" height="27" viewBox="0 0 26 27" fill="none" xmlns="http://www.w3.org/2000/svg">
<g clip-path="url(#clip0_529_3491)">
<path d="M10.725 0.438232H9.2625L8.2875 4.17573L7.3125 0.438232H5.6875C6.0125 1.41323 6.3375 2.22573 6.6625 3.20073C7.15 4.50073 7.475 5.63823 7.475 6.28823V10.1882H8.9375V6.28823L10.725 0.438232ZM14.625 7.75073V5.31323C14.625 4.50073 14.4625 4.01323 14.1375 3.52573C13.8125 3.03823 13.325 2.87573 12.675 2.87573C12.025 2.87573 11.5375 3.20073 11.2125 3.68823C10.8875 4.01323 10.725 4.50073 10.725 5.31323V7.91323C10.725 8.72573 10.8875 9.21323 11.2125 9.53823C11.5375 10.0257 12.025 10.1882 12.675 10.1882C13.325 10.1882 13.8125 9.86323 14.1375 9.37573C14.4625 9.21323 14.625 8.56323 14.625 7.75073ZM13.325 8.07573C13.325 8.72573 13.1625 9.05073 12.675 9.05073C12.1875 9.05073 12.025 8.72573 12.025 8.07573V4.98823C12.025 4.33823 12.1875 4.01323 12.675 4.01323C13.1625 4.01323 13.325 4.33823 13.325 4.98823V8.07573ZM19.5 10.1882V2.87573H18.2V8.40073C17.875 8.88823 17.7125 9.05073 17.3875 9.05073C17.225 9.05073 17.0625 8.88823 17.0625 8.72573V2.87573H15.7625V8.56323C15.7625 9.05073 15.7625 9.37573 15.925 9.70073C15.925 10.0257 16.25 10.1882 16.7375 10.1882C17.225 10.1882 17.7125 9.86323 18.2 9.37573V10.1882H19.5Z" fill="black"/>
<path d="M20.15 17.5007C19.6625 17.5007 19.5 17.8257 19.5 18.4757V19.1257H20.8V18.4757C20.8 17.8257 20.6375 17.5007 20.15 17.5007Z" fill="black"/>
<path d="M15.4371 17.5007C15.2746 17.5007 14.9496 17.6632 14.7871 17.8257V22.2132C14.9496 22.3757 15.2746 22.5382 15.4371 22.5382C15.7621 22.5382 15.9246 22.2132 15.9246 21.5632V18.4757C15.9246 17.8257 15.7621 17.5007 15.4371 17.5007Z" fill="black"/>
<path d="M23.4004 13.9258C23.0754 12.7883 22.1004 11.8133 21.1254 11.8133C18.5254 11.4883 15.7629 11.4883 13.0004 11.4883C10.2379 11.4883 7.63789 11.4883 4.87539 11.8133C3.90039 11.8133 2.92539 12.7883 2.60039 13.9258C2.27539 15.5508 2.27539 17.3383 2.27539 18.9633C2.27539 20.5883 2.27539 22.3758 2.60039 24.0008C2.92539 25.1383 3.73789 25.9508 4.87539 26.1133C7.63789 26.4383 10.2379 26.4383 13.0004 26.4383C15.7629 26.4383 18.3629 26.4383 21.1254 26.1133C22.2629 25.9508 23.2379 25.1383 23.4004 24.0008C23.7254 22.3758 23.7254 20.5883 23.7254 18.9633C23.7254 17.3383 23.7254 15.5508 23.4004 13.9258ZM8.45039 15.3883H6.82539V23.6758H5.36289V15.3883H3.90039V13.9258H8.45039V15.3883ZM12.3504 23.6758H11.0504V22.8633C10.5629 23.5133 10.0754 23.6758 9.58789 23.6758C9.10039 23.6758 8.93789 23.5133 8.77539 23.1883C8.77539 23.0258 8.61289 22.7008 8.61289 22.0508V16.3633H9.91289V22.0508C9.91289 22.2133 10.0754 22.3758 10.2379 22.3758C10.5629 22.3758 10.7254 22.2133 11.0504 21.7258V16.3633H12.3504V23.6758ZM17.2254 21.4008C17.2254 22.0508 17.2254 22.5383 17.0629 22.8633C16.9004 23.3508 16.5754 23.6758 16.0879 23.6758C15.6004 23.6758 15.1129 23.3508 14.7879 22.8633V23.5133H13.4879V13.9258H14.7879V17.0133C15.2754 16.5258 15.6004 16.2008 16.0879 16.2008C16.5754 16.2008 16.9004 16.5258 17.0629 17.0133C17.2254 17.3383 17.2254 17.8258 17.2254 18.4758V21.4008ZM22.1004 20.2633H19.5004V21.5633C19.5004 22.2133 19.6629 22.5383 20.1504 22.5383C20.4754 22.5383 20.6379 22.3758 20.8004 22.0508V21.2383H22.1004V22.2133C22.1004 22.5383 21.9379 22.7008 21.7754 23.0258C21.4504 23.5133 20.9629 23.8383 20.1504 23.8383C19.5004 23.8383 19.0129 23.5133 18.5254 23.0258C18.2004 22.7008 18.0379 22.0508 18.0379 21.4008V18.9633C18.0379 18.1508 18.2004 17.6633 18.3629 17.3383C18.6879 16.8508 19.1754 16.5258 19.9879 16.5258C20.6379 16.5258 21.1254 16.8508 21.4504 17.3383C21.7754 17.6633 21.7754 18.3133 21.7754 18.9633V20.2633H22.1004Z" fill="black"/>
</g>
<defs>
<clipPath id="clip0_529_3491">
<rect width="26" height="26" fill="white" transform="translate(0 0.438232)"/>
</clipPath>
</defs>
</svg>
